<?xml version="1.0" encoding="utf-8"?>
<!-- Generator: Adobe Illustrator 16.0.0, SVG Export Plug-In . SVG Version: 6.00 Build 0)  -->
<!DOCTYPE svg PUBLIC "-//W3C//DTD SVG 1.1//EN" "http://www.w3.org/Graphics/SVG/1.1/DTD/svg11.dtd">
<svg version="1.1" id="Capa_1" xmlns="http://www.w3.org/2000/svg" xmlns:xlink="http://www.w3.org/1999/xlink" x="0px" y="0px"
	 width="1024px" height="748px" viewBox="0 0 1024 748" enable-background="new 0 0 1024 748" xml:space="preserve">
<g>
	<g>
		<path fill="#FF4F19" d="M601.15,448.285c0.515-4.942,4.086-9.028,8.925-10.175c4.828-1.142,9.873,0.879,12.556,5.067
			l71.608,111.95c10.763,16.903,16.447,36.431,16.447,56.474v124.71c0,4.942-3.104,9.347-7.761,11.008
			c-1.278,0.456-2.613,0.68-3.927,0.68c-3.436,0-6.78-1.519-9.051-4.287L587.216,618.146c-1.963-2.407-2.888-5.502-2.58-8.595
			L601.15,448.285z"/>
	</g>
	<g>
		<path fill="#E9001E" d="M422.849,448.285c-0.515-4.942-4.087-9.028-8.925-10.175c-4.829-1.142-9.873,0.879-12.555,5.067
			l-71.609,111.95c-10.763,16.903-16.447,36.431-16.447,56.474v124.71c0,4.942,3.104,9.347,7.76,11.008
			c1.278,0.456,2.614,0.68,3.927,0.68c3.437,0,6.78-1.519,9.051-4.287l102.732-125.565c1.964-2.407,2.889-5.502,2.58-8.595
			L422.849,448.285z"/>
	</g>
	<g>
		<path fill="#C1C1C1" d="M518.015,1.67c-3.697-2.225-8.332-2.225-12.029,0c-4.999,3.002-122.547,75.329-122.547,232.082
			c0,63.293,15.729,231.695,36.592,391.713c3.024,23.215,22.941,40.723,46.304,40.723h91.332c23.363,0,43.28-17.508,46.304-40.723
			c20.864-160.018,36.592-328.419,36.592-391.713C640.562,76.999,523.014,4.67,518.015,1.67z"/>
	</g>
	<g>
		<path fill="#939393" d="M512,666.188h-45.666c-23.363,0-43.28-17.508-46.304-40.723
			c-20.863-160.018-36.592-328.419-36.592-391.713c0-156.753,117.548-229.081,122.547-232.082c1.842-1.109,3.918-1.663,5.994-1.667
			h0.021L512,666.188L512,666.188z"/>
	</g>
	<g>
		<circle fill="#53DCFF" cx="512" cy="245.44" r="70.125"/>
	</g>
	<g>
		<g>
			<path fill="#FF4F19" d="M512,748c-6.46,0-11.688-5.233-11.688-11.688V455.813c0-6.454,5.228-11.688,11.688-11.688
				s11.688,5.233,11.688,11.688v280.499C523.688,742.767,518.46,748,512,748z"/>
		</g>
	</g>
	<g>
		<path fill="#FF4F19" d="M505.985,1.67c-3.343,2.007-56.947,35.046-92.143,103.52h196.314
			c-35.195-68.474-88.8-101.514-92.143-103.52C514.317-0.557,509.683-0.557,505.985,1.67z"/>
	</g>
	<g>
		<path fill="#E9001E" d="M512,0c-2.083,0-4.167,0.557-6.015,1.67c-3.343,2.007-56.947,35.046-92.143,103.52H512V0z"/>
	</g>
	<g>
		<path fill="#B3F4FF" d="M582.125,245.439c0-38.729-31.396-70.125-70.125-70.125v140.25
			C550.729,315.564,582.125,284.169,582.125,245.439z"/>
	</g>
	<g>
		<g>
			<path fill="#5C546A" d="M512,327.252c-45.106,0-81.813-36.7-81.813-81.813s36.706-81.812,81.813-81.812
				s81.813,36.7,81.813,81.812S557.106,327.252,512,327.252z M512,187.002c-32.221,0-58.438,26.217-58.438,58.438
				s26.217,58.438,58.438,58.438s58.438-26.217,58.438-58.438S544.221,187.002,512,187.002z"/>
		</g>
	</g>
</g>
</svg>
